<svg id="bd422282-30bf-4570-aa4e-18f4c61f01fd" data-name="US UK Download on the" xmlns="http://www.w3.org/2000/svg" viewBox="0 0 266.3 76.5"><title>app-store</title><path d="M266.3,68.8a7.7,7.7,0,0,1-7.7,7.7H7.7A7.7,7.7,0,0,1,0,68.8V7.7A7.7,7.7,0,0,1,7.7,0H258.6a7.7,7.7,0,0,1,7.7,7.7V68.8h0Z"/><path d="M58.5,37.9c-0.1-6.4,5.3-9.6,5.5-9.7a12.11,12.11,0,0,0-9.4-5.1c-3.9-.4-7.8,2.4-9.8,2.4s-5.1-2.3-8.5-2.2a12.43,12.43,0,0,0-10.5,6.4c-4.5,7.8-1.2,19.4,3.2,25.7,2.2,3.1,4.7,6.6,8,6.5s4.5-2.1,8.4-2.1,5,2.1,8.4,2,5.7-3.1,7.8-6.3a31.6,31.6,0,0,0,3.6-7.2C65.2,48.1,58.5,45.6,58.5,37.9Z" fill="#fff"/><path d="M52.1,18.9a11.88,11.88,0,0,0,2.6-8.2,11.74,11.74,0,0,0-7.5,3.9c-1.6,1.9-3.1,5-2.7,7.9C47.3,22.7,50.2,21.1,52.1,18.9Z" fill="#fff"/><path d="M105.5,61.3H101l-2.5-7.8H89.9l-2.5,7.8H83l8.6-26.6h5.3ZM97.7,50.2l-2.2-7c-0.2-.7-0.7-2.4-1.3-5H94.1c-0.3,1.1-.7,2.8-1.3,5l-2.2,7h7.1Z" fill="#fff"/><path d="M127.5,51.5a11,11,0,0,1-2.6,7.7,7.64,7.64,0,0,1-5.9,2.5,5.84,5.84,0,0,1-5.4-2.7h-0.1V69.1h-4.3V48.4c0-2.1-.1-4.2-0.2-6.3h3.8l0.2,3h0.1a7.65,7.65,0,0,1,12.2-.7A10.77,10.77,0,0,1,127.5,51.5Zm-4.3.1a7.38,7.38,0,0,0-1.3-4.6,4.3,4.3,0,0,0-3.7-1.9,5.08,5.08,0,0,0-2.9,1,4.84,4.84,0,0,0-1.7,2.7,8.32,8.32,0,0,0-.2,1.3v3.2a4.75,4.75,0,0,0,1.3,3.5,4.53,4.53,0,0,0,3.3,1.4,4.35,4.35,0,0,0,3.8-1.9A6.94,6.94,0,0,0,123.2,51.6Z" fill="#fff"/><path d="M149.6,51.5a11,11,0,0,1-2.6,7.7,7.64,7.64,0,0,1-5.9,2.5,5.84,5.84,0,0,1-5.4-2.7h-0.1V69.1h-4.3V48.4c0-2.1-.1-4.2-0.2-6.3h3.8l0.2,3h0.1a7.65,7.65,0,0,1,12.2-.7A11.34,11.34,0,0,1,149.6,51.5Zm-4.3.1A7.38,7.38,0,0,0,144,47a4.3,4.3,0,0,0-3.7-1.9,5.08,5.08,0,0,0-2.9,1,4.84,4.84,0,0,0-1.7,2.7,8.32,8.32,0,0,0-.2,1.3v3.2a4.75,4.75,0,0,0,1.3,3.5,4.18,4.18,0,0,0,3.3,1.4,4.35,4.35,0,0,0,3.8-1.9A6.94,6.94,0,0,0,145.3,51.6Z" fill="#fff"/><path d="M174.3,53.8a6.91,6.91,0,0,1-2.4,5.5c-1.7,1.6-4.1,2.3-7.2,2.3a12.57,12.57,0,0,1-6.9-1.7l1-3.6A12,12,0,0,0,165,58a6.13,6.13,0,0,0,3.8-1.1,3.47,3.47,0,0,0,1.3-2.9,3.69,3.69,0,0,0-1.1-2.7,12,12,0,0,0-3.7-2.1c-4.7-1.7-7-4.3-7-7.6a6.85,6.85,0,0,1,2.4-5.4,9.58,9.58,0,0,1,6.5-2.1,12.11,12.11,0,0,1,6,1.3l-1.1,3.5a10.67,10.67,0,0,0-5.1-1.2,5.23,5.23,0,0,0-3.5,1.1,3.36,3.36,0,0,0-1.1,2.4,3.22,3.22,0,0,0,1.2,2.6,16.1,16.1,0,0,0,3.9,2.1,13.56,13.56,0,0,1,5.1,3.2A7.33,7.33,0,0,1,174.3,53.8Z" fill="#fff"/><path d="M188.4,45.3h-4.7v9.3c0,2.4.8,3.6,2.5,3.6a9.2,9.2,0,0,0,1.9-.2l0.1,3.2a9.54,9.54,0,0,1-3.3.5,5,5,0,0,1-3.9-1.5c-0.9-1-1.4-2.8-1.4-5.2V45.3h-2.8V42.1h2.8V38.6l4.2-1.3v4.8h4.7C188.4,42.1,188.4,45.3,188.4,45.3Z" fill="#fff"/><path d="M209.6,51.6a10.45,10.45,0,0,1-2.5,7.3,8.86,8.86,0,0,1-7,2.9,8.34,8.34,0,0,1-6.7-2.8,10.59,10.59,0,0,1-2.5-7.1,10.51,10.51,0,0,1,2.6-7.3,8.83,8.83,0,0,1,7-2.8,8.69,8.69,0,0,1,6.8,2.8A10.35,10.35,0,0,1,209.6,51.6Zm-4.4.1a9.48,9.48,0,0,0-1.1-4.6,4.37,4.37,0,0,0-7.7,0,8.49,8.49,0,0,0-1.1,4.6,9.48,9.48,0,0,0,1.1,4.6,4.37,4.37,0,0,0,7.7,0A9.48,9.48,0,0,0,205.2,51.7Z" fill="#fff"/><path d="M223.4,45.9a5.7,5.7,0,0,0-1.3-.1,4.14,4.14,0,0,0-3.5,1.7,6.56,6.56,0,0,0-1.1,3.8v10h-4.3V48.2c0-2.2-.1-4.2-0.2-6h3.7l0.2,3.7H217a6.06,6.06,0,0,1,2.1-3,5,5,0,0,1,3.1-1,3.75,3.75,0,0,1,1.1.1C223.4,41.8,223.4,45.9,223.4,45.9Z" fill="#fff"/><path d="M242.5,50.8a9.2,9.2,0,0,1-.2,1.9H229.5a5.62,5.62,0,0,0,1.9,4.3,6.39,6.39,0,0,0,4.2,1.3,14.56,14.56,0,0,0,5.2-.9l0.7,3a15.89,15.89,0,0,1-6.4,1.2,9.43,9.43,0,0,1-7-2.6,9.69,9.69,0,0,1-2.5-7,10.79,10.79,0,0,1,2.4-7.2,8.12,8.12,0,0,1,6.7-3.1,7,7,0,0,1,6.3,3.1A12.09,12.09,0,0,1,242.5,50.8Zm-4.1-1.1a5.78,5.78,0,0,0-.8-3.3,3.7,3.7,0,0,0-3.4-1.8,4.22,4.22,0,0,0-3.4,1.7,7,7,0,0,0-1.3,3.3l8.9,0.1h0Z" fill="#fff"/><path d="M96.3,18.3a6.51,6.51,0,0,1-2.1,5.3,8.5,8.5,0,0,1-5.6,1.6,26.89,26.89,0,0,1-3.1-.2V12.3a20.16,20.16,0,0,1,3.6-.3,7.87,7.87,0,0,1,5.2,1.5A6,6,0,0,1,96.3,18.3Zm-2.2.1a4.79,4.79,0,0,0-1.2-3.5,4.79,4.79,0,0,0-3.5-1.2,8.62,8.62,0,0,0-1.7.1v9.8c0.3,0,.7.1,1.4,0.1a4.92,4.92,0,0,0,3.7-1.3A5.52,5.52,0,0,0,94.1,18.4Z" fill="#fff"/><path d="M108,20.4a5.4,5.4,0,0,1-1.2,3.6,4.32,4.32,0,0,1-3.5,1.4A4.22,4.22,0,0,1,100,24a5.13,5.13,0,0,1-1.2-3.5,4.84,4.84,0,0,1,1.3-3.6,4.6,4.6,0,0,1,3.4-1.4,4.22,4.22,0,0,1,3.3,1.4A5.13,5.13,0,0,1,108,20.4Zm-2.2,0a3.8,3.8,0,0,0-.6-2.2,2,2,0,0,0-1.9-1.1,2.14,2.14,0,0,0-1.9,1.1,4.14,4.14,0,0,0-.6,2.3,3.8,3.8,0,0,0,.6,2.2,2.06,2.06,0,0,0,1.9,1.1,2.26,2.26,0,0,0,1.9-1.1A4.14,4.14,0,0,0,105.8,20.4Z" fill="#fff"/><path d="M123.7,15.7l-2.9,9.4h-1.9L117.7,21c-0.3-1-.6-2-0.8-3h0a16.66,16.66,0,0,1-.8,3l-1.3,4.1h-1.9l-2.8-9.4h2.2l1.1,4.5a19.85,19.85,0,0,1,.6,3h0c0.2-.8.4-1.8,0.8-3l1.3-4.5h1.7l1.3,4.4c0.3,1.1.6,2.1,0.8,3.1H120c0.1-1,.4-2,0.6-3.1l1.1-4.4h2Z" fill="#fff"/><path d="M134.6,25.2h-2.1V19.8c0-1.7-.6-2.5-1.9-2.5a1.8,1.8,0,0,0-1.5.7,2.45,2.45,0,0,0-.6,1.6v5.6h-2.1V18.5a26.23,26.23,0,0,0-.1-2.7h1.8l0.1,1.5h0.1a2.35,2.35,0,0,1,1.1-1.1,3.2,3.2,0,0,1,1.9-.5,2.94,2.94,0,0,1,2.2.9,4.17,4.17,0,0,1,1.1,3.1v5.5Z" fill="#fff"/><path d="M140.4,25.2h-2.1V11.4h2.1V25.2Z" fill="#fff"/><path d="M152.7,20.4a5.4,5.4,0,0,1-1.2,3.6,4.32,4.32,0,0,1-3.5,1.4,4.22,4.22,0,0,1-3.3-1.4,5.13,5.13,0,0,1-1.2-3.5,4.84,4.84,0,0,1,1.3-3.6,4.6,4.6,0,0,1,3.4-1.4,4.22,4.22,0,0,1,3.3,1.4A5.13,5.13,0,0,1,152.7,20.4Zm-2.2,0a3.8,3.8,0,0,0-.6-2.2,2,2,0,0,0-1.9-1.1,2.14,2.14,0,0,0-1.9,1.1,4.14,4.14,0,0,0-.6,2.3,3.8,3.8,0,0,0,.6,2.2,2.06,2.06,0,0,0,1.9,1.1,2.26,2.26,0,0,0,1.9-1.1A4.14,4.14,0,0,0,150.5,20.4Z" fill="#fff"/><path d="M162.9,25.2H161l-0.2-1.1h-0.1a3.17,3.17,0,0,1-2.8,1.3,2.94,2.94,0,0,1-2.2-.9,2.64,2.64,0,0,1-.7-1.9,2.9,2.9,0,0,1,1.4-2.6,7.79,7.79,0,0,1,4.1-.9V18.9a1.77,1.77,0,0,0-2-1.9,4.3,4.3,0,0,0-2.5.7l-0.4-1.4a6.6,6.6,0,0,1,3.2-.8c2.5,0,3.7,1.3,3.7,3.9v3.5C162.7,23.9,162.8,24.6,162.9,25.2Zm-2.2-3.3V20.4c-2.3,0-3.5.6-3.5,1.9a1.25,1.25,0,0,0,.4,1.1,1.78,1.78,0,0,0,1,.4,2,2,0,0,0,1.3-.4,1.9,1.9,0,0,0,.7-1.1A0.48,0.48,0,0,0,160.7,21.9Z" fill="#fff"/><path d="M174.8,25.2h-1.9l-0.1-1.5h-0.1a3,3,0,0,1-3,1.7,3.41,3.41,0,0,1-2.8-1.3,5.42,5.42,0,0,1-1.1-3.5,5.49,5.49,0,0,1,1.2-3.7,3.74,3.74,0,0,1,2.9-1.3,2.79,2.79,0,0,1,2.7,1.3h0V11.5h2.1V22.7A20.9,20.9,0,0,0,174.8,25.2Zm-2.2-4V19.6a1.48,1.48,0,0,0-.1-0.7,2.58,2.58,0,0,0-.8-1.3,2.39,2.39,0,0,0-1.4-.5,2,2,0,0,0-1.8.9,4.27,4.27,0,0,0-.7,2.4,4.14,4.14,0,0,0,.6,2.3,2.23,2.23,0,0,0,3.5.1A1.86,1.86,0,0,0,172.6,21.2Z" fill="#fff"/><path d="M192.7,20.4a5.4,5.4,0,0,1-1.2,3.6,4.32,4.32,0,0,1-3.5,1.4,4.22,4.22,0,0,1-3.3-1.4,5.13,5.13,0,0,1-1.2-3.5,4.84,4.84,0,0,1,1.3-3.6,4.6,4.6,0,0,1,3.4-1.4,4.22,4.22,0,0,1,3.3,1.4A5.13,5.13,0,0,1,192.7,20.4Zm-2.2,0a3.8,3.8,0,0,0-.6-2.2,2,2,0,0,0-1.9-1.1,2.14,2.14,0,0,0-1.9,1.1,4.14,4.14,0,0,0-.6,2.3,3.8,3.8,0,0,0,.6,2.2,2.06,2.06,0,0,0,1.9,1.1,2.26,2.26,0,0,0,1.9-1.1A4.14,4.14,0,0,0,190.5,20.4Z" fill="#fff"/><path d="M204,25.2h-2.1V19.8c0-1.7-.6-2.5-1.9-2.5a1.8,1.8,0,0,0-1.5.7,2.45,2.45,0,0,0-.6,1.6v5.6h-2.1V18.5a26.23,26.23,0,0,0-.1-2.7h1.8l0.1,1.5h0.1a2.35,2.35,0,0,1,1.1-1.1,3.2,3.2,0,0,1,1.9-.5,2.94,2.94,0,0,1,2.2.9,4.17,4.17,0,0,1,1.1,3.1v5.5Z" fill="#fff"/><path d="M218.1,17.3h-2.3v4.6c0,1.2.4,1.7,1.2,1.7a2.22,2.22,0,0,0,.9-0.1l0.1,1.6a3.9,3.9,0,0,1-1.6.2,2.41,2.41,0,0,1-1.9-.8,3.56,3.56,0,0,1-.7-2.5V17.3h-1.4V15.7h1.4V14l2.1-.6v2.3h2.3l-0.1,1.6h0Z" fill="#fff"/><path d="M229.2,25.2h-2.1V19.8c0-1.7-.6-2.5-1.9-2.5a2,2,0,0,0-2,1.5,2,2,0,0,0-.1.8v5.7H221V11.4h2.1v5.7h0a3.22,3.22,0,0,1,2.8-1.5,2.94,2.94,0,0,1,2.2.9,4.42,4.42,0,0,1,1.1,3.2v5.5Z" fill="#fff"/><path d="M240.6,20a3.08,3.08,0,0,1-.1,1h-6.3a2.58,2.58,0,0,0,.9,2.1,3.3,3.3,0,0,0,2.1.7,6.57,6.57,0,0,0,2.5-.4l0.3,1.5a7.62,7.62,0,0,1-3.2.6,4.24,4.24,0,0,1-3.4-1.3,5,5,0,0,1-1.2-3.5,5.13,5.13,0,0,1,1.2-3.5,4,4,0,0,1,3.3-1.5,3.5,3.5,0,0,1,3.1,1.5A4.45,4.45,0,0,1,240.6,20Zm-2-.5a2.73,2.73,0,0,0-.4-1.6,1.85,1.85,0,0,0-1.7-.9,2.09,2.09,0,0,0-1.7.9,3.14,3.14,0,0,0-.6,1.6h4.4Z" fill="#fff"/></svg>