<svg id="credit-card" xmlns="http://www.w3.org/2000/svg" viewBox="0 0 96 96"><path d="M84,20H12a5,5,0,0,0-5,5V71a5,5,0,0,0,5,5H84a5,5,0,0,0,5-5V25A5,5,0,0,0,84,20ZM9,31.82H87v6.59H9ZM12,22H84a3,3,0,0,1,3,3v4.82H9V25A3,3,0,0,1,12,22ZM84,74H12a3,3,0,0,1-3-3V40.41H87V71A3,3,0,0,1,84,74Z"/><path d="M15.27,60h17a1,1,0,0,0,0-2h-17a1,1,0,0,0,0,2Z"/><path d="M15.27,49h7.27a1,1,0,1,0,0-2H15.27a1,1,0,0,0,0,2Z"/><path d="M28.61,49H40.73a1,1,0,0,0,0-2H28.61a1,1,0,0,0,0,2Z"/><path d="M43.15,64.18H15.27a1,1,0,0,0,0,2H43.15a1,1,0,0,0,0-2Z"/><path d="M80.73,51.91H66.18a1,1,0,0,0-1,1V65.18a1,1,0,0,0,1,1H80.73a1,1,0,0,0,1-1V52.91A1,1,0,0,0,80.73,51.91Zm-1,12.27H67.18V53.91H79.73Z"/></svg>
