<svg id="health" xmlns="http://www.w3.org/2000/svg" viewBox="0 0 96 96"><path d="M88.24,53.59a5.6,5.6,0,0,0-7.85-1L69.66,61l-9.81,1.94a5.55,5.55,0,0,0-4.43-8.16L40.75,52.87A18.41,18.41,0,0,0,25.9,57.6l-8.72,8-.48-.57h0a3.3,3.3,0,0,0-4.63-.36L8.15,68a3.27,3.27,0,0,0-.37,4.62L21.57,88.85a3.3,3.3,0,0,0,4.63.36l3.9-3.32a3.26,3.26,0,0,0,.39-4.59l3.74-3.18a4.49,4.49,0,0,1,3-1.05c.85.07,11.26,2,17.64,3.28A8.69,8.69,0,0,0,61,79.23L74.52,71l.16-.13L87.87,58.42A3.59,3.59,0,0,0,88.24,53.59ZM28.82,84.37l-3.9,3.32a1.3,1.3,0,0,1-1.82-.14L9.31,71.33a1.27,1.27,0,0,1,.14-1.8l3.9-3.32a1.3,1.3,0,0,1,1.82.14L29,82.58a1.27,1.27,0,0,1-.14,1.8ZM86.5,57,73.38,69.34,60,77.53a6.68,6.68,0,0,1-4.74.87c-5.11-1-17-3.28-18-3.32h0a6.68,6.68,0,0,0-4.31,1.52l-3.74,3.18L18.48,67.15l8.78-8.08a16.41,16.41,0,0,1,13.24-4.21l14.73,1.88a3.55,3.55,0,0,1,.9,6.9l-.37,0a8.9,8.9,0,0,1-2.27,0L42.83,62.17a1,1,0,0,0-.28,2l10.65,1.49a10.83,10.83,0,0,0,2.78,0l.47-.05h.08l13.76-2.72a1,1,0,0,0,.42-.19l10.91-8.5a3.6,3.6,0,0,1,5,.63A1.59,1.59,0,0,1,86.5,57Z"/><path  d="M24,23.71h4.78a12.74,12.74,0,0,0,2.89,5.37L46.85,44.94a1.6,1.6,0,0,0,2.31,0l15.2-15.87a12.81,12.81,0,0,0-.25-17.39A11.71,11.71,0,0,0,48,10.79a11.71,11.71,0,0,0-16.11.88,12.73,12.73,0,0,0-3.46,10H24a1,1,0,0,0,0,2Zm9.34-10.65A9.76,9.76,0,0,1,40.27,10h.15a9.76,9.76,0,0,1,6.87,2.85,1,1,0,0,0,.53.27,1,1,0,0,0,.9-.27,9.72,9.72,0,0,1,14,.21,10.8,10.8,0,0,1,.22,14.64L48,43.25,33.13,27.72a10.68,10.68,0,0,1-2.27-4h4.91a1,1,0,0,0,.88-.52l2.63-4.76L42.4,30a1,1,0,0,0,.87.73h.1a1,1,0,0,0,.89-.55l3.22-6.43H56a1,1,0,0,0,0-2H46.86a1,1,0,0,0-.89.55l-2.32,4.64L40.56,15.53a1,1,0,0,0-1.84-.22l-3.54,6.4H30.44A10.74,10.74,0,0,1,33.34,13.06Z"/></svg>
