<svg id="house" xmlns="http://www.w3.org/2000/svg" viewBox="0 0 96 96"><path d="M85.33,36.86,51.39,11.14a5.62,5.62,0,0,0-6.77,0l-34,25.75A4.1,4.1,0,0,0,9,40.22a4.22,4.22,0,0,0,4.61,4.2V85a1,1,0,0,0,1,1H81.39a1,1,0,0,0,1-1V44.41c.13,0,.26,0,.39,0A4.22,4.22,0,0,0,87,40.22,4.12,4.12,0,0,0,85.33,36.86ZM57.36,84H38.64V53.75H57.36Zm23,0h-21V52.75a1,1,0,0,0-1-1H37.64a1,1,0,0,0-1,1V84h-21V43.68l.15-.1L47.91,19.21a.15.15,0,0,1,.18,0L80.24,43.58l.15.1Zm3.38-41.8A2.17,2.17,0,0,1,81.45,42L49.3,17.62a2.16,2.16,0,0,0-2.6,0L14.55,42A2.21,2.21,0,0,1,11,40.22a2.1,2.1,0,0,1,.88-1.76L45.82,12.73a3.62,3.62,0,0,1,4.35,0l33.91,25.7A2.1,2.1,0,0,1,85,40.22,2.17,2.17,0,0,1,83.77,42.2Z"/><path d="M48,31.86a5.61,5.61,0,1,0,5.61,5.61A5.61,5.61,0,0,0,48,31.86Zm0,9.21a3.61,3.61,0,1,1,3.61-3.61A3.61,3.61,0,0,1,48,41.08Z"/><path d="M43.39,69.87h2.3a1,1,0,0,0,0-2h-2.3a1,1,0,0,0,0,2Z"/></svg>
