<?xml version="1.0" encoding="utf-8"?>
<!-- Generator: Adobe Illustrator 21.0.2, SVG Export Plug-In . SVG Version: 6.00 Build 0)  -->
<svg version="1.1" id="Layer_1" xmlns="http://www.w3.org/2000/svg" xmlns:xlink="http://www.w3.org/1999/xlink" x="0px" y="0px"
	 viewBox="0 0 17.9 17.9" style="enable-background:new 0 0 17.9 17.9;" xml:space="preserve">
<style type="text/css">
	.st0{fill:#CCCCCC;}
</style>
<path id="Forme_14_copie" class="st0" d="M17.7,16.7l-4.8-4.8c1.1-1.3,1.7-2.9,1.7-4.6c0-4-3.2-7.3-7.2-7.3C3.3,0,0,3.2,0,7.2
	s3.2,7.3,7.2,7.3c1.7,0,3.4-0.6,4.7-1.7l4.8,4.8c0.1,0.1,0.3,0.2,0.4,0.2c0.2,0,0.3-0.1,0.5-0.2c0.1-0.1,0.2-0.3,0.2-0.5
	C17.9,17,17.8,16.9,17.7,16.7z M7.3,13.3c-3.3,0-5.9-2.7-5.9-6s2.7-5.9,6-5.9s5.9,2.7,5.9,5.9C13.2,10.6,10.6,13.3,7.3,13.3z"/>
</svg>
