<?xml version="1.0" encoding="utf-8"?>
<!-- Generated by IcoMoon.io -->
<!DOCTYPE svg PUBLIC "-//W3C//DTD SVG 1.1//EN" "http://www.w3.org/Graphics/SVG/1.1/DTD/svg11.dtd">
<svg version="1.1" xmlns="http://www.w3.org/2000/svg" xmlns:xlink="http://www.w3.org/1999/xlink" width="32" height="32" viewBox="0 0 32 32">
<path d="M23.467 31.867c-3.333 0-6.4-1.933-9-3.867-2.667-2-5.067-4.333-7.333-6.8-3.8-4-9.467-10.667-5.933-16.533 0.933-1.533 2.4-2.733 3.667-4 1-0.933 2.467-0.8 3.4 0.067 0.467 0.4 0.867 0.867 1.267 1.333 1.467 1.467 2.933 3 4.4 4.467 0.4 0.4 0.8 0.8 1.2 1.2 1 1 0.8 2.467-0.133 3.4-0.533 0.533-1.067 1-1.6 1.533 0.733 1.933 2.467 3.6 4.067 4.8 0.4 0.333 0.867 0.667 1.333 0.867 0.2 0.133 0.4 0.2 0.6 0.133 0.133-0.067 0.267-0.267 0.4-0.333 0.4-0.4 0.867-0.8 1.267-1.2 1-0.867 2.4-0.8 3.333 0.067 0.467 0.4 0.867 0.867 1.267 1.267 1.467 1.467 2.933 2.933 4.467 4.467 0.4 0.4 0.8 0.8 1.2 1.2 2 2.067-0.933 4.267-2.4 5.6-1.533 1.467-3.333 2.333-5.467 2.333zM4.933 5.2c-0.867 0.867-1.467 1.867-1.533 3.133s0.4 2.467 0.933 3.533c1.067 2.267 2.667 4.267 4.333 6.133 3.267 3.667 6.933 7.533 11.467 9.733 1.2 0.533 2.467 1 3.8 0.8 1.133-0.133 2.067-0.733 2.867-1.533 0.067-0.067 0.867-0.8 1.467-1.4l-5.667-5.6c-0.6 0.6-1.4 1.333-1.467 1.4-1.2 1.333-3.4 0.267-4.6-0.533-1.8-1.133-3.333-2.667-4.6-4.333-1-1.333-2.467-3.467-1.733-5.2 0.333-0.8 1.267-1.467 1.867-2.067l-5.6-5.6-1.533 1.533z"></path>
</svg>
