<svg id="svg" xmlns="http://www.w3.org/2000/svg" viewBox="0 0 96 96">
    <title>axa_icon_96_black_functional</title>
    <path
        class="cls-1"
        d="M66.33,18.14a26.9,26.9,0,0,0-20.69-7A26.39,26.39,0,0,0,26.73,21.52a27.65,27.65,0,0,0-5.29,21.68,24.62,24.62,0,0,0,3,8.11L45.86,83.92a2.63,2.63,0,0,0,4.28,0L71.61,51.27A26.28,26.28,0,0,0,75,37.84,26.85,26.85,0,0,0,66.33,18.14Zm3.58,32.08L48.5,82.74A.63.63,0,0,1,48,83a.61.61,0,0,1-.48-.22L26.09,50.26a22.61,22.61,0,0,1-2.68-7.41,25.65,25.65,0,0,1,4.91-20.11A24.42,24.42,0,0,1,45.8,13.09Q46.91,13,48,13A24.94,24.94,0,0,1,73,37.84,24.29,24.29,0,0,1,69.91,50.21Z"/><path class="cls-1" d="M48,25.63A12.25,12.25,0,1,0,60.3,37.88,12.29,12.29,0,0,0,48,25.63Zm0,22.5A10.25,10.25,0,1,1,58.3,37.88,10.29,10.29,0,0,1,48,48.13Z"/>
</svg>
