<svg xmlns="http://www.w3.org/2000/svg" width="48" height="48" viewBox="0 0 284 284">
  <g fill="none" fill-rule="nonzero">
    <path fill="#00008F" d="M.0025.0025h284v284h-284z"/>
    <path fill="#FF1721" d="M175.659 139.99L283.467 0h-15.923L159.38 139.99z"/>
    <path fill="#FFF" d="M216.597 202.461c4.941 13.823 15.122 49.795 19.1695 52.661H209.038c-.080311-3.180259-.500874-6.342781-1.2545-9.4335-1.1525-4.1115-10.8205-35.215-10.8205-35.215h-42.456l-6.675 9.463s8.0175 25.0975 8.5155 26.328c.8645 2.217 4.6925 8.8575 4.6925 8.8575h-25.615s-.664-3.833-.913-5.4295c-.2005-1.289-2.427-8.3495-2.427-8.3495s-5.8055 6.362-7.3875 9.3115c-1.597 2.944-2.305 4.4675-2.305 4.4675h-20.039s-.669-3.833-.918-5.4295c-.195-1.289-2.64652-8.916-2.64652-8.916s-5.61 6.8115-7.207 9.7555c-1.587 2.9495-2.2705 4.59-2.2705 4.59h-19.819s5.6005-5.332 7.5585-7.622c3.3005-3.882 15.6005-19.956 15.6005-19.956L87.72 210.47349H45.586s-24.0235 31.5675-24.97049 32.544c-.957.962-7.959 11.011-8.11551 12.10451H0v-7.94901a5.98649876 5.98649876 0 0 1 .493-.4785c.386-.2835 18.213-22.4125 34.59-44.2335 14.717-19.0285 28.5255-37.5345 29.7365-39.297 2.9345-4.2625 7.163-13.4665 7.163-13.4665h21.782s.674 8.4665 1.309 10.522c.566 1.8165 13.8375 45.3615 14.15 45.8305l7.339-9.385-12.544-38.6135s-2.9395-7.2655-3.8965-8.354h25.4445c-.089817 2.335503.19031 4.670515.83 6.9185 1.035 3.184 6.4895 22.8665 6.4895 22.8665s17.3535-21.753 18.369-23.3155c1.232773-1.948778 1.968772-4.170167 2.1435-6.4695h21.201s-3.8815 2.8365-10.6835 11.44c-2.285 2.8955-24.673 31.348-24.673 31.348s1.9535 6.66 2.9055 9.97552c.259.952.4395 1.5965.4395 1.665 0 .02948.493-.576 1.34252-1.665 5.77648-7.3195 32.051-41.7725 33.643-44.722 1.284-2.3825 3.1735-5.0925 4.282-8.04152H202.539s.4785 6.17652 1.1085 7.88552L216.597 202.461zm-31.475-32.6125c-3.037 6.5335-20.913 28.296-20.913 28.296h28.3105s-5.488-16.8995-6.445-20.708c-.489051-2.43525-.676128-4.921488-.557-7.4025-.00002-.3465-.0635-.908-.3955-.1855zm-108.7745 0c-3.037 6.5335-20.913 28.296-20.913 28.296H83.745s-5.483-16.8995-6.44-20.708c-.4890509-2.43525-.6761275-4.921488-.557-7.4025 0-.3465-.068-.908-.40051-.1855h.00001zM118.97 235.835l7.793-10.703c-.718-.77152-5.10748-14.082-5.10748-14.082l-7.53452 9.775 4.849 15.01z"/>
  </g>
</svg>
