<!-- From brandhub.axa.com  -->
<svg xmlns="http://www.w3.org/2000/svg" width="100%" height="100%" viewBox="0 0 96 96">
  <g fill="none" fill-rule="evenodd">
    <path d="M0 0h96v96H0z"/>
    <path stroke="currentColor" stroke-linecap="round" stroke-linejoin="round" stroke-width="2" d="M28.3579 63.2841h32.914M26.5884 57.9755h36.431M88.8765 57.7841v-10.768c0-2.453-1.738-4.556-4.134-5.003l-14.205-3.66-9.218-8.35c-5.357-4.942-9.128-6.003-13.851-6.003h-21.307c-2.77 0-5.399 2.288-7.19 4.416l-9.195 10.922c-.309.364-.702.634-1.12.863-.93.509-1.533 1.496-1.533 2.596v14.987"/>
    <path stroke="currentColor" stroke-linecap="round" stroke-linejoin="round" stroke-width="2" d="M28.3579 63.2841c0 4.691-3.803 8.494-8.494 8.494s-8.494-3.803-8.494-8.494 3.803-8.494 8.494-8.494 8.494 3.803 8.494 8.494z"/>
    <path stroke="currentColor" stroke-linecap="round" stroke-linejoin="round" stroke-width="2" d="M23.0493 63.2841c0 1.759-1.426 3.186-3.185 3.186-1.759 0-3.185-1.427-3.185-3.186s1.426-3.186 3.185-3.186c1.759 0 3.185 1.427 3.185 3.186zM78.2593 63.2841c0 4.691-3.803 8.494-8.494 8.494s-8.494-3.803-8.494-8.494 3.803-8.494 8.494-8.494 8.494 3.803 8.494 8.494z"/>
    <path stroke="currentColor" stroke-linecap="round" stroke-linejoin="round" stroke-width="2" d="M72.9507 63.2841c0 1.759-1.426 3.186-3.185 3.186-1.759 0-3.185-1.427-3.185-3.186s1.426-3.186 3.185-3.186c1.759 0 3.185 1.427 3.185 3.186zM78.2593 63.2841h10.086c1.466 0 2.655-1.188 2.655-2.654s-1.189-2.655-2.655-2.655h-11.949M11.3704 63.2841h-3.716c-1.466 0-2.654-1.188-2.654-2.654s1.188-2.655 2.654-2.655h5.58M88.8765 49.4813s-3.185 0-5.309-2.427c-2.123-2.427-3.185-6.066-3.185-6.066M19.8643 39.9257l7.974-8.859c1.007-1.12 2.441-1.758 3.946-1.758h15.657c3.434 0 6.744 1.28 9.285 3.59l7.731 7.027M64.4568 39.9257h-44.593M40.8613 57.9735l.475-28.663M47.4692 45.2343h-2.124M7.1235 47.3583c5.94 0 7.388-7.433 1.985-7.433"/>
  </g>
</svg>