<svg id="plane" xmlns="http://www.w3.org/2000/svg" viewBox="0 0 96 96"><path d="M90,49.4,80,40.3a15.37,15.37,0,0,0-10.33-4.12H58.56L47.95,16.25A7.29,7.29,0,0,0,41.5,12H35.79a1,1,0,0,0-1,1.13l3,23.05H22.94a6,6,0,0,1-4.47-2.09l-6.12-8a5,5,0,0,0-4-2H5a1,1,0,0,0-.77.37c-.31.38-.31.38,1.35,8.65L7,40.32a6.08,6.08,0,0,0-2,4.55,8.1,8.1,0,0,0,4,7.22c6.17,3.37,14.11,7.53,16.86,8.22a27.74,27.74,0,0,0,6.8.85h4l-3,23.72a1,1,0,0,0,1,1.12h5.77a7.38,7.38,0,0,0,6.52-4.2L58.87,61.15H85.75c3.44,0,6.25-3.13,6.25-7A6.45,6.45,0,0,0,90,49.4Zm-1,1.86c-1.35,1.31-3,1.86-5.48,1.86h-20L64.68,51a1,1,0,0,0-.87-1.5H39.11a1,1,0,0,0-1,.88l-.34,2.75h-6.5a28.62,28.62,0,0,1-5.52-.54L7.45,47.12a6.84,6.84,0,0,1-.39-2.25,4,4,0,0,1,1.62-3.32h0a3,3,0,0,1,1.07-.45l14.44-2.9H69l4.1,7.92a1,1,0,0,0,.89.54H84l4.64,4.23A3.8,3.8,0,0,1,88.95,51.25Zm-7.17-6.61H74.62l-3.28-6.33a13.58,13.58,0,0,1,7.29,3.47ZM39.85,36.18,36.93,14H41.5a5.32,5.32,0,0,1,4.67,3.17l10.13,19H39.85ZM6.21,26.09H8.36a3.06,3.06,0,0,1,2.41,1.26l6.16,8a8.51,8.51,0,0,0,2.22,1.8l-9.77,2a4.79,4.79,0,0,0-.51.16C7.91,34.56,6.71,28.58,6.21,26.09ZM32.74,59.15a25.76,25.76,0,0,1-6.31-.79c-2-.5-7.93-3.43-16.39-8a5,5,0,0,1-.85-.6l16.09,4.79a30.52,30.52,0,0,0,6,.6h6.25l-.51,4Zm12.58,21.7A5.42,5.42,0,0,1,40.56,84H35.92L40,51.48H62.09Zm40.43-21.7H60l2.31-4H83.46a9.46,9.46,0,0,0,6.4-2A4.79,4.79,0,0,1,90,54.18C90,56.92,88.1,59.15,85.75,59.15Z"/><path d="M27.3,43.44H25.17a1,1,0,1,0,0,2H27.3a1,1,0,0,0,0-2Z"/><path d="M34.73,43.44H32.6a1,1,0,0,0,0,2h2.12a1,1,0,0,0,0-2Z"/><path d="M42.16,43.44H40a1,1,0,0,0,0,2h2.12a1,1,0,0,0,0-2Z"/><path d="M49.59,43.44H47.47a1,1,0,0,0,0,2h2.12a1,1,0,0,0,0-2Z"/><path d="M57,43.44H54.9a1,1,0,0,0,0,2H57a1,1,0,0,0,0-2Z"/><path d="M64.46,43.44H62.33a1,1,0,0,0,0,2h2.12a1,1,0,0,0,0-2Z"/></svg>
