<svg xmlns="http://www.w3.org/2000/svg" width="100%" height="100%" viewBox="0 0 32 32">>
    <path d="M0 0h32v32H0z" fill="transparent" />
    <path fill="currentColor" fill-rule="nonzero" d="M8.27507385 21.1202821C6.84083377 19.8780174 5.70781992 18.2961442 5 16.5 6.73 12.11 11 9 16 9c1.2102244 0 2.3776811.18220159 3.4767039.52065468l-2.0976614 2.17219192C16.9409439 11.5672657 16.4782796 11.5 16 11.5c-2.76 0-5 2.24-5 5 0 .5394742.0855798 1.0590816.2438949 1.5459779l-2.96882105 3.0743042zm3.52343545 2.1096019l2.1117023-2.1867317C14.5461967 21.3364011 15.2541092 21.5 16 21.5c2.76 0 5-2.24 5-5 0-.8079171-.1919391-1.5712769-.5326751-2.2469372l2.7175346-2.8140895C24.8753806 12.7378797 26.2055269 14.4839671 27 16.5c-1.73 4.39-6 7.5-11 7.5-1.4801175 0-2.8962652-.272529-4.2014907-.770116zm7.1303915-7.3837365C18.9754575 16.056552 19 16.2753455 19 16.5c0 1.66-1.34 3-3 3-.1883033 0-.372489-.0172427-.5510681-.0502392l3.4799689-3.6036133zm-5.9154819.3674347c.1315039-1.3959897 1.21479-2.510025 2.5963189-2.688567l-2.5963189 2.688567zm10.6031417-9.54031817l1.4386796 1.38931674L8.38343935 25.326736l-1.4386796-1.3893168L23.6165606 6.67326403z"/>
</svg>
