<!-- From brandhub.axa.com -->
<svg xmlns="http://www.w3.org/2000/svg" width="100%" height="100%" viewBox="0 0 96 96">
  <g fill="none" fill-rule="evenodd">
    <path d="M0 0h96v96H0z"/>
    <g stroke="currentColor" stroke-linecap="round" stroke-linejoin="round" stroke-width="2">
      <path d="M27.9999 35.9999h-3.106c-1.86 0-3.644-.738-4.959-2.05l-5.761-6.579c-.76-.868-1.856-1.366-3.011-1.368-1.423-.002-3.16309077-.003-3.16309077-.003C7.9809 25.9999 10.9509 38.9209 10.9509 38.9209"/>
      <path d="M57.9999 55h26.06c2.728 0 4.94-2.212 4.94-4.941 0-1.301-.592-2.532-1.608-3.345l-9.405-7.524c-2.581-2.065-5.788-3.19-9.093-3.19h-42.894l-13.695 2.417c-1.911.337-3.305 1.998-3.305 3.939 0 2.238 1.28 4.275 3.299 5.242 4.696 2.249 13.03 6.141 15.659 6.725 2.028.451 4.094.677 6.172.677h5.87"/>
      <path d="M41 47l-4 32h3.491c2.168 0 4.167-1.169 5.229-3.058L62 47H41zM82.6801 43h-9.68l-4.125-7M27 42h2M34 42h2M41 42h2M48 42h2M55 42h2M62 42h2M56 36L45.72 19.058C44.658 17.169 42.659 16 40.491 16H37l3 20h16z"/>
      <path d="M60.3125 50h21.59c3.097 0 4.886-.788 6.288-2.19M10 45l17.289 4.522c1.804.318 3.633.478 5.464.478h7.872"/>
    </g>
  </g>
</svg>
