<!-- From brandhub.axa.com -->
<svg xmlns="http://www.w3.org/2000/svg" width="100%" height="100%" viewBox="0 0 96 96">
  <g fill="none" fill-rule="evenodd">
    <path d="M0 0h96v96H0z"/>
    <g stroke="currentColor" stroke-linecap="round" stroke-linejoin="round" stroke-width="2">
      <path d="M48.1218 43.3382c.207.216.55.216.756 0l13.281-13.867c3.567-3.95 3.508-10.162-.197-14.025-3.705-3.862-9.663-3.924-13.451-.205l-.011-.011-.01.011c-3.789-3.719-9.747-3.657-13.452.205-3.704 3.863-3.764 10.075-.197 14.025l13.281 13.867zM43.8567 59.8946l9.32 1.299c.732.102 1.474.111 2.209.025l.409-.048c1.502-.475 2.643-1.814 2.774-3.476.173-2.199-1.476-4.122-3.683-4.294l-12.842-1.643c-4.475-.572-8.974.86-12.288 3.91l-7.774 7.156-.567.424"/>
      <path d="M39.1069 71.1917c.68-.001 15.582 2.888 15.582 2.888 1.643.311 3.343 0 4.769-.871l11.786-7.209 11.541-10.897c.854-.806.956-2.126.236-3.053h0c-1.361-1.751-3.892-2.065-5.643-.701l-9.548 7.442-12.036 2.38M39.1069 71.1917c-1.172-.021-2.317.365-3.214 1.127l-3.86 3.282M20.4434 62.1182c-.719-.837-1.984-.935-2.826-.221l-3.415 2.903c-.842.715-.941 1.973-.221 2.809l12.058 14.193c.719.836 1.984.935 2.825.22l3.416-2.903c.841-.714.94-1.972.221-2.809l-12.058-14.192zM55.5 24.5h-8l-3.059 6.114-3.293-12.168-3.351 6.054H27.5"/>
    </g>
  </g>
</svg>
