<svg xmlns="http://www.w3.org/2000/svg" width="100%" height="100%" viewBox="0 0 32 32">
  <g fill="transparent">
    <path fill="currentColor" fill-rule="nonzero" d="M12.1391667 10.7525c-.0119222.7688846-.6427846 1.3836767-1.4117209 1.3757593-.76893623-.0079175-1.38700564-.6355694-1.38311155-1.4045365.00393104-.76896705.62835539-1.39029703 1.39733245-1.39038947.3744247-.00004499.7332077.15016169.9959216.41694868.2627139.26678699.4073834.62783829.4015784 1.00221799zm0 2.535H9.33333333v9.0458333H12.15L12.1391667 13.2875zm4.485 0H13.84v9.0458333h2.795v-4.745c0-2.6325 3.3908333-2.8491666 3.3908333 0v4.745h2.8058334V16.6025c0-4.4416667-5.0158334-4.3333333-6.1966667-2.0908333L16.6241667 13.2875z"/>
    <path d="M0 0h32v32H0z"/>
  </g>
</svg>
