<svg xmlns="http://www.w3.org/2000/svg" width="100%" height="100%" viewBox="0 0 32 32">
  <g fill="transparent">
    <path fill="currentColor" fill-rule="nonzero" d="M23.3083333 11.3630262c-.5230729.2330867-1.0781276.3864571-1.6466666.455.6028092-.3582226 1.0536666-.9246844 1.2675-1.5925-.5627574.3330672-1.1782771.5675509-1.82.6933333-.8876181-.95715798-2.3092418-1.19498296-3.4600596-.5788371-1.1508178.6161458-1.741072 1.9311266-1.4366071 3.2005038-2.3042022-.1190651-4.4498522-1.2096065-5.9041667-3.0008333-.76491833 1.3120651-.37557492 2.992889.8883334 3.835-.4556314-.0138634-.901349-.1364357-1.30000003-.3575-.01741795 1.3778235.94655053 2.57369 2.29666663 2.8491666-.4167195.1300962-.8576207.1634417-1.2891666.0975.3746139 1.1677867 1.4496801 1.9686457 2.6758333 1.9933334-1.201547.9446007-2.7290985 1.3732503-4.24666667 1.1916666 2.57613757 1.6495788 5.85864687 1.7192441 8.50245197.1804491 2.643805-1.538795 4.2044962-4.427387 4.042548-7.4821157.5608951-.4060219 1.0451025-.9085705 1.43-1.4841667z"/>
    <path d="M0 0h32v32H0z"/>
  </g>
</svg>