<svg xmlns="http://www.w3.org/2000/svg" width="100%" height="100%" viewBox="0 0 32 32">
  <g fill="transparent">
    <path fill="currentColor" fill-rule="nonzero" d="M16.1859069 18.4825736c-1.268414 0-2.2966666-1.0282527-2.2966666-2.2966667s1.0282526-2.2966666 2.2966666-2.2966666 2.2966667 1.0282526 2.2966667 2.2966666-1.0282527 2.2966667-2.2966667 2.2966667zm6.8466667-5.135c.0325.7366667 0 .9641667 0 2.8383333v2.8383334c.0602542 1.0804236-.342665 2.1353443-1.107827 2.9005063-.765162.765162-1.8200827 1.1680812-2.9005063 1.107827h-5.6766667c-1.0804236.0602542-2.1353444-.342665-2.9005064-1.107827-.76516196-.765162-1.16808114-1.8200827-1.10782694-2.9005063v-2.8383334-2.8383333c-.0602542-1.0804236.34266498-2.1353444 1.10782694-2.9005064.765162-.76516196 1.8200828-1.16808114 2.9005064-1.10782694h5.6766667c1.0804236-.0602542 2.1353443.34266498 2.9005063 1.10782694.765162.765162 1.1680812 1.8200828 1.107827 2.9005064zm-6.8466667 6.5866667c.9941198 0 1.9475231-.3949126 2.6504719-1.0978615.7029489-.7029488 1.0978615-1.6563521 1.0978615-2.6504719 0-2.0701473-1.678186-3.7483333-3.7483334-3.7483333-2.0701473 0-3.7483333 1.678186-3.7483333 3.7483333 0 2.0701474 1.678186 3.7483334 3.7483333 3.7483334zm3.8891667-6.8033334c.4547144 0 .8233333-.3686189.8233333-.8233333 0-.3330073-.2005987-.6332245-.5082573-.7606608-.3076586-.1274364-.6617889-.0569955-.8972606.1784762-.2354717.2354717-.3059126.589602-.1784762.8972606.1274363.3076586.4276535.5082573.7606608.5082573z"/>
    <path d="M0 0h32v32H0z"/>
  </g>
</svg>